<?xml version="1.0" encoding="us-ascii" standalone="no"?><svg xmlns="http://www.w3.org/2000/svg" xmlns:xlink="http://www.w3.org/1999/xlink" contentStyleType="text/css" height="1765px" preserveAspectRatio="none" style="width:1959px;height:1765px;background:#FFFFFF;" version="1.1" viewBox="0 0 1959 1765" width="1959px" zoomAndPan="magnify"><defs><filter height="1" id="b13hz9ni2fuy9w0" width="1" x="0" y="0"><feFlood flood-color="#ADD8E6" result="flood"/><feComposite in="SourceGraphic" in2="flood" operator="over"/></filter><filter height="1" id="b13hz9ni2fuy9w1" width="1" x="0" y="0"><feFlood flood-color="#FFFFE0" result="flood"/><feComposite in="SourceGraphic" in2="flood" operator="over"/></filter><filter height="1" id="b13hz9ni2fuy9w2" width="1" x="0" y="0"><feFlood flood-color="#90EE90" result="flood"/><feComposite in="SourceGraphic" in2="flood" operator="over"/></filter><filter height="1" id="b13hz9ni2fuy9w3" width="1" x="0" y="0"><feFlood flood-color="#E0FFFF" result="flood"/><feComposite in="SourceGraphic" in2="flood" operator="over"/></filter><filter height="1" id="b13hz9ni2fuy9w4" width="1" x="0" y="0"><feFlood flood-color="#FFC0CB" result="flood"/><feComposite in="SourceGraphic" in2="flood" operator="over"/></filter></defs><g><text fill="#000000" font-family="Tahoma" font-size="22" font-weight="bold" lengthAdjust="spacing" textLength="623" x="663.75" y="37.0107">C4 Container Diagram - Password Generator Application</text><text fill="#000000" font-family="Tahoma" font-size="22" font-weight="bold" lengthAdjust="spacing" textLength="533" x="708.75" y="63.5654">[&#3649;&#3612;&#3609;&#3616;&#3634;&#3614;&#3626;&#3606;&#3634;&#3611;&#3633;&#3605;&#3618;&#3585;&#3619;&#3619;&#3617;&#3619;&#3632;&#3610;&#3610; Password Generator]</text><!--cluster Password Generator Web Application--><g id="cluster_Password Generator Web Application"><path d="M502,272.9141 L807,272.9141 A3.75,3.75 0 0 1 809.5,275.4141 L816.5,298.2266 L1950,298.2266 A2.5,2.5 0 0 1 1952.5,300.7266 L1952.5,1471.9141 A2.5,2.5 0 0 1 1950,1474.4141 L502,1474.4141 A2.5,2.5 0 0 1 499.5,1471.9141 L499.5,275.4141 A2.5,2.5 0 0 1 502,272.9141 " fill="#FFFFFF" style="stroke:#000000;stroke-width:1.0;"/><line style="stroke:#000000;stroke-width:1.0;" x1="499.5" x2="816.5" y1="298.2266" y2="298.2266"/><text fill="#000000" font-family="Tahoma" font-size="16" font-weight="bold" lengthAdjust="spacing" textLength="304" x="503.5" y="290.9219">Password Generator Web Application</text></g><!--cluster Frontend Components--><g id="cluster_Frontend Components"><path d="M983,318.9141 L1163,318.9141 A3.75,3.75 0 0 1 1165.5,321.4141 L1172.5,344.2266 L1539,344.2266 A2.5,2.5 0 0 1 1541.5,346.7266 L1541.5,1447.9141 A2.5,2.5 0 0 1 1539,1450.4141 L983,1450.4141 A2.5,2.5 0 0 1 980.5,1447.9141 L980.5,321.4141 A2.5,2.5 0 0 1 983,318.9141 " fill="#FFFFFF" style="stroke:#000000;stroke-width:1.0;"/><line style="stroke:#000000;stroke-width:1.0;" x1="980.5" x2="1172.5" y1="344.2266" y2="344.2266"/><text fill="#000000" font-family="Tahoma" font-size="16" font-weight="bold" lengthAdjust="spacing" textLength="179" x="984.5" y="336.9219">Frontend Components</text></g><!--entity web_app--><g id="elem_web_app"><rect fill="#ADD8E6" height="48.9688" rx="2.5" ry="2.5" style="stroke:#666666;stroke-width:1.0;" width="195" x="516" y="356.9141"/><text fill="#000000" font-family="Tahoma" font-size="12" lengthAdjust="spacing" textLength="89" x="526" y="378.9199">Web Application</text><text fill="#000000" font-family="Tahoma" font-size="12" lengthAdjust="spacing" textLength="175" x="526" y="393.4043">&lt;React 18.3 + TypeScript 5.5&gt;</text></g><g id="elem_GMN8"><path d="M746.5,347.4141 L746.5,377.4141 L711.34,381.4141 L746.5,385.4141 L746.5,415.3516 A0,0 0 0 0 746.5,415.3516 L964.5,415.3516 A0,0 0 0 0 964.5,415.3516 L964.5,357.4141 L954.5,347.4141 L746.5,347.4141 A0,0 0 0 0 746.5,347.4141 " fill="#EDF2F7" style="stroke:#CBD5E0;stroke-width:1.0;"/><path d="M954.5,347.4141 L954.5,357.4141 L964.5,357.4141 L954.5,347.4141 " fill="#EDF2F7" style="stroke:#CBD5E0;stroke-width:1.0;"/><text fill="#000000" font-family="Tahoma" font-size="16" lengthAdjust="spacing" textLength="166" x="752.5" y="368.4219">Single Page Application</text><text fill="#000000" font-family="Tahoma" font-size="16" lengthAdjust="spacing" textLength="159" x="752.5" y="387.7344">&#3607;&#3637;&#3656;&#3619;&#3633;&#3609;&#3607;&#3633;&#3657;&#3591;&#3627;&#3617;&#3604;&#3610;&#3609; Browser</text><text fill="#000000" font-family="Tahoma" font-size="16" lengthAdjust="spacing" textLength="197" x="752.5" y="407.0469">&#3652;&#3617;&#3656;&#3605;&#3657;&#3629;&#3591;&#3614;&#3638;&#3656;&#3591;&#3614;&#3634; Backend Server</text></g><!--entity local_storage--><g id="elem_local_storage"><path d="M1557.5,895.4141 C1557.5,885.4141 1625.5,885.4141 1625.5,885.4141 C1625.5,885.4141 1693.5,885.4141 1693.5,895.4141 L1693.5,943.0391 C1693.5,953.0391 1625.5,953.0391 1625.5,953.0391 C1625.5,953.0391 1557.5,953.0391 1557.5,943.0391 L1557.5,895.4141 " fill="#1168BD" style="stroke:#0B5394;stroke-width:1.0;"/><path d="M1557.5,895.4141 C1557.5,905.4141 1625.5,905.4141 1625.5,905.4141 C1625.5,905.4141 1693.5,905.4141 1693.5,895.4141 " fill="none" style="stroke:#0B5394;stroke-width:1.0;"/><text fill="#FFFFFF" font-family="Tahoma" font-size="16" lengthAdjust="spacing" textLength="116" x="1567.5" y="925.4219">Browser Storage</text><text fill="#FFFFFF" font-family="Tahoma" font-size="16" lengthAdjust="spacing" textLength="114" x="1567.5" y="944.7344">&lt;LocalStorage&gt;</text></g><g id="elem_GMN29"><path d="M1728.5,875.9141 L1728.5,915.4141 L1693.83,919.4141 L1728.5,923.4141 L1728.5,963.1641 A0,0 0 0 0 1728.5,963.1641 L1936.5,963.1641 A0,0 0 0 0 1936.5,963.1641 L1936.5,885.9141 L1926.5,875.9141 L1728.5,875.9141 A0,0 0 0 0 1728.5,875.9141 " fill="#EDF2F7" style="stroke:#CBD5E0;stroke-width:1.0;"/><path d="M1926.5,875.9141 L1926.5,885.9141 L1936.5,885.9141 L1926.5,875.9141 " fill="#EDF2F7" style="stroke:#CBD5E0;stroke-width:1.0;"/><text fill="#000000" font-family="Tahoma" font-size="16" lengthAdjust="spacing" textLength="115" x="1734.5" y="896.9219">&#3648;&#3585;&#3655;&#3610;&#3586;&#3657;&#3629;&#3617;&#3641;&#3621;&#3594;&#3633;&#3656;&#3623;&#3588;&#3619;&#3634;&#3623;</text><text fill="#000000" font-family="Tahoma" font-size="16" lengthAdjust="spacing" textLength="187" x="1734.5" y="916.2344">- History (10 &#3619;&#3634;&#3618;&#3585;&#3634;&#3619;&#3621;&#3656;&#3634;&#3626;&#3640;&#3604;)</text><text fill="#000000" font-family="Tahoma" font-size="16" lengthAdjust="spacing" textLength="140" x="1734.5" y="935.5469">- &#3652;&#3617;&#3656;&#3648;&#3585;&#3655;&#3610;&#3619;&#3627;&#3633;&#3626;&#3612;&#3656;&#3634;&#3609;&#3606;&#3634;&#3623;&#3619;</text><text fill="#000000" font-family="Tahoma" font-size="16" lengthAdjust="spacing" textLength="145" x="1734.5" y="954.8594">[&#3618;&#3633;&#3591;&#3652;&#3617;&#3656;&#3652;&#3604;&#3657; implement]</text></g><!--entity clipboard--><g id="elem_clipboard"><rect fill="#E0FFFF" height="48.9688" rx="2.5" ry="2.5" style="stroke:#666666;stroke-width:1.0;" width="105" x="782" y="591.9141"/><text fill="#000000" font-family="Tahoma" font-size="12" lengthAdjust="spacing" textLength="72" x="792" y="613.9199">Clipboard API</text><text fill="#000000" font-family="Tahoma" font-size="12" lengthAdjust="spacing" textLength="85" x="792" y="628.4043">&lt;Browser API&gt;</text></g><!--entity ui_layer--><g id="elem_ui_layer"><rect fill="#FFFFE0" height="48.9688" rx="2.5" ry="2.5" style="stroke:#666666;stroke-width:1.0;" width="142" x="1191.5" y="356.9141"/><text fill="#000000" font-family="Tahoma" font-size="12" lengthAdjust="spacing" textLength="45" x="1201.5" y="378.9199">UI Layer</text><text fill="#000000" font-family="Tahoma" font-size="12" lengthAdjust="spacing" textLength="122" x="1201.5" y="393.4043">&lt;React Components&gt;</text></g><g id="elem_GMN13"><path d="M1360,534.4141 L1360,698.9141 L1525,698.9141 L1525,544.4141 L1515,534.4141 L1360,534.4141 " fill="#EDF2F7" style="stroke:#CBD5E0;stroke-width:1.0;"/><path d="M1515,534.4141 L1515,544.4141 L1525,544.4141 L1515,534.4141 " fill="#EDF2F7" style="stroke:#CBD5E0;stroke-width:1.0;"/><text fill="#000000" font-family="Tahoma" font-size="16" lengthAdjust="spacing" textLength="95" x="1366" y="555.4219">Components:</text><text fill="#000000" font-family="Tahoma" font-size="16" lengthAdjust="spacing" textLength="61" x="1366" y="574.7344">- Header</text><text fill="#000000" font-family="Tahoma" font-size="16" lengthAdjust="spacing" textLength="129" x="1366" y="594.0469">- PasswordDisplay</text><text fill="#000000" font-family="Tahoma" font-size="16" lengthAdjust="spacing" textLength="133" x="1366" y="613.3594">- PasswordOptions</text><text fill="#000000" font-family="Tahoma" font-size="16" lengthAdjust="spacing" textLength="144" x="1366" y="632.6719">- PassphraseOptions</text><text fill="#000000" font-family="Tahoma" font-size="16" lengthAdjust="spacing" textLength="128" x="1366" y="651.9844">- PasswordHistory</text><text fill="#000000" font-family="Tahoma" font-size="16" lengthAdjust="spacing" textLength="106" x="1366" y="671.2969">- SecurityScore</text><text fill="#000000" font-family="Tahoma" font-size="16" lengthAdjust="spacing" textLength="97" x="1366" y="690.6094">- SecurityTips</text></g><!--entity state_mgmt--><g id="elem_state_mgmt"><rect fill="#FFFFE0" height="48.9688" rx="2.5" ry="2.5" style="stroke:#666666;stroke-width:1.0;" width="125" x="1200" y="591.9141"/><text fill="#000000" font-family="Tahoma" font-size="12" lengthAdjust="spacing" textLength="105" x="1210" y="613.9199">State Management</text><text fill="#000000" font-family="Tahoma" font-size="12" lengthAdjust="spacing" textLength="86" x="1210" y="628.4043">&lt;React Hooks&gt;</text></g><g id="elem_GMN17"><path d="M1214.5,856.4141 L1214.5,982.2891 A0,0 0 0 0 1214.5,982.2891 L1454.5,982.2891 A0,0 0 0 0 1454.5,982.2891 L1454.5,866.4141 L1444.5,856.4141 L1323.6,856.4141 L1268.15,641.0341 L1315.6,856.4141 L1214.5,856.4141 A0,0 0 0 0 1214.5,856.4141 " fill="#EDF2F7" style="stroke:#CBD5E0;stroke-width:1.0;"/><path d="M1444.5,856.4141 L1444.5,866.4141 L1454.5,866.4141 L1444.5,856.4141 " fill="#EDF2F7" style="stroke:#CBD5E0;stroke-width:1.0;"/><text fill="#000000" font-family="Tahoma" font-size="16" lengthAdjust="spacing" textLength="132" x="1220.5" y="877.4219">useState, useEffect</text><text fill="#000000" font-family="Tahoma" font-size="16" lengthAdjust="spacing" textLength="219" x="1220.5" y="896.7344">- mode (password/passphrase)</text><text fill="#000000" font-family="Tahoma" font-size="16" lengthAdjust="spacing" textLength="113" x="1220.5" y="916.0469">- config settings</text><text fill="#000000" font-family="Tahoma" font-size="16" lengthAdjust="spacing" textLength="160" x="1220.5" y="935.3594">- generated passwords</text><text fill="#000000" font-family="Tahoma" font-size="16" lengthAdjust="spacing" textLength="59" x="1220.5" y="954.6719">- history</text><text fill="#000000" font-family="Tahoma" font-size="16" lengthAdjust="spacing" textLength="95" x="1220.5" y="973.9844">- copied state</text></g><!--entity logic_layer--><g id="elem_logic_layer"><rect fill="#90EE90" height="48.9688" rx="2.5" ry="2.5" style="stroke:#666666;stroke-width:1.0;" width="145" x="1034" y="894.9141"/><text fill="#000000" font-family="Tahoma" font-size="12" lengthAdjust="spacing" textLength="77" x="1044" y="916.9199">Business Logic</text><text fill="#000000" font-family="Tahoma" font-size="12" lengthAdjust="spacing" textLength="125" x="1044" y="931.4043">&lt;TypeScript Modules&gt;</text></g><g id="elem_GMN21"><path d="M997,1140.4141 L997,1266.2891 A0,0 0 0 0 997,1266.2891 L1216,1266.2891 A0,0 0 0 0 1216,1266.2891 L1216,1150.4141 L1206,1140.4141 L1110.5,1140.4141 L1106.5,943.9741 L1102.5,1140.4141 L997,1140.4141 A0,0 0 0 0 997,1140.4141 " fill="#EDF2F7" style="stroke:#CBD5E0;stroke-width:1.0;"/><path d="M1206,1140.4141 L1206,1150.4141 L1216,1150.4141 L1206,1140.4141 " fill="#EDF2F7" style="stroke:#CBD5E0;stroke-width:1.0;"/><text fill="#000000" font-family="Tahoma" font-size="16" lengthAdjust="spacing" textLength="148" x="1003" y="1161.4219">- passwordGenerator</text><text fill="#000000" font-family="Tahoma" font-size="16" lengthAdjust="spacing" textLength="159" x="1003" y="1180.7344">- passphraseGenerator</text><text fill="#000000" font-family="Tahoma" font-size="16" lengthAdjust="spacing" textLength="198" x="1003" y="1200.0469">- calculatePasswordStrength</text><text fill="#000000" font-family="Tahoma" font-size="16" lengthAdjust="spacing" textLength="145" x="1003" y="1219.3594">- estimateCrackTime</text><text fill="#000000" font-family="Tahoma" font-size="16" lengthAdjust="spacing" textLength="149" x="1003" y="1238.6719">- Fisher-Yates shuffle</text><text fill="#000000" font-family="Tahoma" font-size="16" lengthAdjust="spacing" textLength="114" x="1003" y="1257.9844">- BIP39 wordlist</text></g><!--entity types--><g id="elem_types"><rect fill="#90EE90" height="48.9688" rx="2.5" ry="2.5" style="stroke:#666666;stroke-width:1.0;" width="156" x="1251.5" y="1178.9141"/><text fill="#000000" font-family="Tahoma" font-size="12" lengthAdjust="spacing" textLength="88" x="1261.5" y="1200.9199">Type Definitions</text><text fill="#000000" font-family="Tahoma" font-size="12" lengthAdjust="spacing" textLength="136" x="1261.5" y="1215.4043">&lt;TypeScript Interfaces&gt;</text></g><g id="elem_GMN25"><path d="M1250,1327.4141 L1250,1433.9766 A0,0 0 0 0 1250,1433.9766 L1409,1433.9766 A0,0 0 0 0 1409,1433.9766 L1409,1337.4141 L1399,1327.4141 L1333.5,1327.4141 L1329.5,1228.0841 L1325.5,1327.4141 L1250,1327.4141 A0,0 0 0 0 1250,1327.4141 " fill="#EDF2F7" style="stroke:#CBD5E0;stroke-width:1.0;"/><path d="M1399,1327.4141 L1399,1337.4141 L1409,1337.4141 L1399,1327.4141 " fill="#EDF2F7" style="stroke:#CBD5E0;stroke-width:1.0;"/><text fill="#000000" font-family="Tahoma" font-size="16" lengthAdjust="spacing" textLength="124" x="1256" y="1348.4219">- PasswordConfig</text><text fill="#000000" font-family="Tahoma" font-size="16" lengthAdjust="spacing" textLength="135" x="1256" y="1367.7344">- PassphraseConfig</text><text fill="#000000" font-family="Tahoma" font-size="16" lengthAdjust="spacing" textLength="115" x="1256" y="1387.0469">- PasswordEntry</text><text fill="#000000" font-family="Tahoma" font-size="16" lengthAdjust="spacing" textLength="138" x="1256" y="1406.3594">- PasswordStrength</text><text fill="#000000" font-family="Tahoma" font-size="16" lengthAdjust="spacing" textLength="119" x="1256" y="1425.6719">- GeneratorMode</text></g><!--entity user--><g id="elem_user"><ellipse cx="1262.5" cy="115.2266" fill="#FFFFFF" rx="8" ry="8" style="stroke:#000000;stroke-width:1.0;"/><path d="M1262.5,123.2266 L1262.5,150.2266 M1249.5,131.2266 L1275.5,131.2266 M1262.5,150.2266 L1249.5,165.2266 M1262.5,150.2266 L1275.5,165.2266 " fill="none" style="stroke:#000000;stroke-width:1.0;"/><text fill="#000000" font-family="Tahoma" font-size="16" lengthAdjust="spacing" textLength="53" x="1236" y="183.2344">&#3612;&#3641;&#3657;&#3651;&#3594;&#3657;&#3591;&#3634;&#3609;</text><text fill="#000000" font-family="Tahoma" font-size="16" font-style="italic" lengthAdjust="spacing" textLength="66" x="1229.5" y="102.9219">&#171;Person&#187;</text></g><g id="elem_GMN3"><path d="M1331,102.9141 L1331,132.9141 L1295.5,136.9141 L1331,140.9141 L1331,170.8516 A0,0 0 0 0 1331,170.8516 L1478,170.8516 A0,0 0 0 0 1478,170.8516 L1478,112.9141 L1468,102.9141 L1331,102.9141 A0,0 0 0 0 1331,102.9141 " fill="#EDF2F7" style="stroke:#CBD5E0;stroke-width:1.0;"/><path d="M1468,102.9141 L1468,112.9141 L1478,112.9141 L1468,102.9141 " fill="#EDF2F7" style="stroke:#CBD5E0;stroke-width:1.0;"/><text fill="#000000" font-family="Tahoma" font-size="16" lengthAdjust="spacing" textLength="123" x="1337" y="123.9219">&#3612;&#3641;&#3657;&#3651;&#3594;&#3657;&#3607;&#3637;&#3656;&#3605;&#3657;&#3629;&#3591;&#3585;&#3634;&#3619;&#3626;&#3619;&#3657;&#3634;&#3591;</text><text fill="#000000" font-family="Tahoma" font-size="16" lengthAdjust="spacing" textLength="126" x="1337" y="143.2344">&#3619;&#3627;&#3633;&#3626;&#3612;&#3656;&#3634;&#3609;&#3607;&#3637;&#3656;&#3649;&#3586;&#3655;&#3591;&#3649;&#3585;&#3619;&#3656;&#3591;</text><text fill="#000000" font-family="Tahoma" font-size="16" lengthAdjust="spacing" textLength="85" x="1337" y="162.5469">&#3649;&#3621;&#3632;&#3611;&#3621;&#3629;&#3604;&#3616;&#3633;&#3618;</text></g><!--entity cdn--><g id="elem_cdn"><path d="M347.7318,591.4564 C350.1992,585.4192 356.1665,585.1924 359.6329,590.3989 C362.9678,585.6142 366.1224,585.3898 370.115,589.6354 C372.3177,582.5424 377.2931,582.2298 382.2267,586.7996 C385.6677,581.0515 389.8587,580.414 394.3948,585.5785 C397.5265,580.8005 400.5431,579.2402 404.8821,584.2902 C408.9891,578.9808 414.5176,580.4293 417.2509,585.8707 C420.9373,579.7554 426.0517,581.4802 428.9885,586.6504 C433.1865,582.6234 437.8137,584.4469 439.5486,589.5113 C443.3438,583.313 448.2203,582.3026 452.6704,588.8365 C456.4838,584.3952 462.4002,583.7165 464.6205,590.5283 C471.4367,593.466 473.7712,597.886 467.6077,603.7551 C474.8805,606.2198 475.2969,611.6354 470.7265,616.9084 C476.2877,622.7329 474.5209,628.8012 466.8578,630.9934 C471.0043,636.3342 471.0469,642.5728 462.8592,644.171 C460.8469,649.4352 456.8755,650.2219 453.0875,646.0003 C450.3308,653.5245 445.06,652.9056 440.4102,647.9184 C436.702,654.1632 432.0111,654.5242 427.8686,648.3573 C425.6981,654.8025 421.7164,655.3688 416.9854,650.9138 C414.2328,656.0911 410.0866,657.0779 406.5412,651.698 C402.0917,658.6756 397.0057,657.1481 393.2935,650.9564 C388.4571,655.0244 385.3671,653.8792 383.3985,648.0803 C379.4483,652.9488 374.9253,653.0325 371.763,647.2218 C367.814,653.7204 361.347,653.3019 358.2279,646.3844 C352.971,651.2176 349.674,649.3311 346.7203,643.8218 C340.5574,640.4155 339.3173,636.2048 344.2353,630.7 C337.2731,628.379 334.331,624.5736 339.726,617.8995 C334.0081,611.325 335.6558,604.3601 345.0199,603.2274 C340.195,598.1278 341.2653,593.9546 347.7318,591.4564 " fill="#EEEEEE" style="stroke:#999999;stroke-width:1.0;"/><text fill="#000000" font-family="Tahoma" font-size="16" lengthAdjust="spacing" textLength="102" x="353.5" y="612.9219">CDN / Hosting</text><text fill="#000000" font-family="Tahoma" font-size="16" lengthAdjust="spacing" textLength="91" x="353.5" y="632.2344">&lt;Vite Build&gt;</text></g><g id="elem_GMN34"><path d="M299.5,885.4141 L299.5,953.3516 A0,0 0 0 0 299.5,953.3516 L483.5,953.3516 A0,0 0 0 0 483.5,953.3516 L483.5,895.4141 L473.5,885.4141 L396.94,885.4141 L403.05,651.0641 L388.94,885.4141 L299.5,885.4141 A0,0 0 0 0 299.5,885.4141 " fill="#EDF2F7" style="stroke:#CBD5E0;stroke-width:1.0;"/><path d="M473.5,885.4141 L473.5,895.4141 L483.5,895.4141 L473.5,885.4141 " fill="#EDF2F7" style="stroke:#CBD5E0;stroke-width:1.0;"/><text fill="#000000" font-family="Tahoma" font-size="16" lengthAdjust="spacing" textLength="160" x="305.5" y="906.4219">HTML, CSS, JavaScript</text><text fill="#000000" font-family="Tahoma" font-size="16" lengthAdjust="spacing" textLength="101" x="305.5" y="925.7344">&#3607;&#3637;&#3656;&#3606;&#3641;&#3585; build &#3649;&#3621;&#3657;&#3623;</text><text fill="#000000" font-family="Tahoma" font-size="16" lengthAdjust="spacing" textLength="163" x="305.5" y="945.0469">Hosting: Vercel, Netlify</text></g><!--entity supabase--><g id="elem_supabase"><path d="M100.5,582.9141 C100.5,572.9141 189.5,572.9141 189.5,572.9141 C189.5,572.9141 278.5,572.9141 278.5,582.9141 L278.5,649.8516 C278.5,659.8516 189.5,659.8516 189.5,659.8516 C189.5,659.8516 100.5,659.8516 100.5,649.8516 L100.5,582.9141 " fill="#FFC0CB" style="stroke:#0B5394;stroke-width:1.0;"/><path d="M100.5,582.9141 C100.5,592.9141 189.5,592.9141 189.5,592.9141 C189.5,592.9141 278.5,592.9141 278.5,582.9141 " fill="none" style="stroke:#0B5394;stroke-width:1.0;"/><text fill="#FFFFFF" font-family="Tahoma" font-size="16" lengthAdjust="spacing" textLength="136" x="110.5" y="612.9219">Supabase Database</text><text fill="#FFFFFF" font-family="Tahoma" font-size="16" lengthAdjust="spacing" textLength="106" x="110.5" y="632.2344">&lt;PostgreSQL&gt;</text><text fill="#FFFFFF" font-family="Tahoma" font-size="16" lengthAdjust="spacing" textLength="158" x="110.5" y="651.5469">[Optional - &#3618;&#3633;&#3591;&#3652;&#3617;&#3656;&#3652;&#3604;&#3657;&#3651;&#3594;&#3657;]</text></g><g id="elem_GMN38"><path d="M11,798.4141 L11,1040.1641 A0,0 0 0 0 11,1040.1641 L264,1040.1641 A0,0 0 0 0 264,1040.1641 L264,808.4141 L254,798.4141 L162.29,798.4141 L182.1,660.2241 L154.29,798.4141 L11,798.4141 A0,0 0 0 0 11,798.4141 " fill="#EDF2F7" style="stroke:#CBD5E0;stroke-width:1.0;"/><path d="M254,798.4141 L254,808.4141 L264,808.4141 L254,798.4141 " fill="#EDF2F7" style="stroke:#CBD5E0;stroke-width:1.0;"/><rect fill="#000000" height="3.5" style="stroke:#000000;stroke-width:0.0;" width="3.5" x="26" y="812.7266"/><text fill="#000000" font-family="Tahoma" font-size="16" lengthAdjust="spacing" textLength="153" x="33" y="819.4219">Supabase &#3614;&#3619;&#3657;&#3629;&#3617;&#3651;&#3594;&#3657;&#3591;&#3634;&#3609;</text><text fill="#000000" font-family="Tahoma" font-size="16" lengthAdjust="spacing" textLength="157" x="17" y="838.7344">&#3649;&#3605;&#3656;&#3618;&#3633;&#3591;&#3652;&#3617;&#3656;&#3652;&#3604;&#3657; integrate**</text><text fill="#000000" font-family="Tahoma" font-size="16" lengthAdjust="spacing" textLength="5" x="17" y="858.0469">&#160;</text><text fill="#000000" font-family="Tahoma" font-size="16" lengthAdjust="spacing" textLength="194" x="17" y="877.3594">&#3651;&#3609;&#3648;&#3623;&#3629;&#3619;&#3660;&#3594;&#3633;&#3609;&#3611;&#3633;&#3592;&#3592;&#3640;&#3610;&#3633;&#3609; &#3649;&#3629;&#3611;&#3607;&#3635;&#3591;&#3634;&#3609;</text><text fill="#000000" font-family="Tahoma" font-size="16" lengthAdjust="spacing" textLength="140" x="17" y="896.6719">&#3649;&#3610;&#3610; client-side only</text><text fill="#000000" font-family="Tahoma" font-size="16" lengthAdjust="spacing" textLength="159" x="17" y="915.9844">&#3648;&#3614;&#3639;&#3656;&#3629;&#3588;&#3623;&#3634;&#3617;&#3611;&#3621;&#3629;&#3604;&#3616;&#3633;&#3618;&#3626;&#3641;&#3591;&#3626;&#3640;&#3604;</text><text fill="#000000" font-family="Tahoma" font-size="16" lengthAdjust="spacing" textLength="5" x="17" y="935.2969">&#160;</text><text fill="#000000" font-family="Tahoma" font-size="16" lengthAdjust="spacing" textLength="215" x="17" y="954.6094">&#3585;&#3634;&#3619;&#3651;&#3594;&#3657;&#3591;&#3634;&#3609; Supabase &#3651;&#3609;&#3629;&#3609;&#3634;&#3588;&#3605;:</text><text fill="#000000" font-family="Tahoma" font-size="16" lengthAdjust="spacing" textLength="147" x="17" y="973.9219">- User authentication</text><text fill="#000000" font-family="Tahoma" font-size="16" lengthAdjust="spacing" textLength="232" x="17" y="993.2344">- Cloud backup password history</text><text fill="#000000" font-family="Tahoma" font-size="16" lengthAdjust="spacing" textLength="149" x="17" y="1012.5469">- Sync across devices</text><text fill="#000000" font-family="Tahoma" font-size="16" lengthAdjust="spacing" textLength="192" x="17" y="1031.8594">- Encrypted password vault</text></g><!--link ui_layer to GMN13--><g id="link_ui_layer_GMN13"><path d="M1313.8,405.9841 C1321.67,409.3041 1329.76,412.5641 1337.5,415.4141 C1381.04,431.4541 1409.26,408.5941 1437.5,445.4141 C1456.55,470.2441 1460.68,503.6641 1458.98,534.2941 " fill="none" id="ui_layer-GMN13" style="stroke:#000000;stroke-width:1.0;stroke-dasharray:7.0,7.0;"/></g><!--link user to web_app--><g id="link_user_web_app"><path d="M1229.35,139.6141 C1142.07,145.3441 900.87,169.3841 729.5,264.9141 C688.05,288.0241 654.9855,325.3916 634.4555,351.8816 " fill="none" id="user-to-web_app" style="stroke:#000000;stroke-width:1.0;"/><polygon fill="#000000" points="630.78,356.6241,639.4548,351.9607,633.8429,352.672,633.1315,347.0601,630.78,356.6241" style="stroke:#000000;stroke-width:1.0;"/><text fill="#000000" font-family="Tahoma" font-size="16" lengthAdjust="spacing" textLength="156" x="824.5" y="233.9219">&#3648;&#3586;&#3657;&#3634;&#3651;&#3594;&#3657;&#3591;&#3634;&#3609;&#3612;&#3656;&#3634;&#3609; Browser</text><text fill="#000000" font-family="Tahoma" font-size="16" lengthAdjust="spacing" textLength="73" x="866" y="253.2344">&lt;HTTPS&gt;</text></g><!--link web_app to cdn--><g id="link_web_app_cdn"><path d="M568.66,406.2041 C551.19,416.7841 531.74,430.2741 516.5,445.4141 C475.13,486.5141 443.3661,539.9507 424.0161,576.5207 " fill="none" id="web_app-to-cdn" style="stroke:#000000;stroke-width:1.0;stroke-dasharray:7.0,7.0;"/><polygon fill="#000000" points="421.21,581.8241,428.9548,575.7398,423.5484,577.4046,421.8836,571.9983,421.21,581.8241" style="stroke:#000000;stroke-width:1.0;"/><text fill="#000000" font-family="Tahoma" font-size="16" lengthAdjust="spacing" textLength="126" x="517.5" y="471.9219">&#3650;&#3627;&#3621;&#3604; static assets</text><text fill="#000000" font-family="Tahoma" font-size="16" lengthAdjust="spacing" textLength="73" x="544" y="491.2344">&lt;HTTPS&gt;</text></g><!--link user to ui_layer--><g id="link_user_ui_layer"><path d="M1262.5,186.9841 C1262.5,238.6141 1262.5,311.6741 1262.5,350.8041 " fill="none" id="user-to-ui_layer" style="stroke:#000000;stroke-width:1.0;"/><polygon fill="#000000" points="1262.5,356.8041,1266.5,347.8041,1262.5,351.8041,1258.5,347.8041,1262.5,356.8041" style="stroke:#000000;stroke-width:1.0;"/><text fill="#000000" font-family="Tahoma" font-size="16" lengthAdjust="spacing" textLength="89" x="1300.5" y="233.9219">&#3650;&#3605;&#3657;&#3605;&#3629;&#3610;&#3585;&#3633;&#3610; UI</text><text fill="#000000" font-family="Tahoma" font-size="16" lengthAdjust="spacing" textLength="163" x="1263.5" y="253.2344">(&#3648;&#3611;&#3621;&#3637;&#3656;&#3618;&#3609; config, &#3588;&#3621;&#3636;&#3585;&#3611;&#3640;&#3656;&#3617;)</text></g><!--link ui_layer to state_mgmt--><g id="link_ui_layer_state_mgmt"><path d="M1261.11,406.0341 C1260.48,417.8541 1259.81,432.3841 1259.5,445.4141 C1258.26,497.6441 1259.9346,552.9187 1261.2246,585.7687 " fill="none" id="ui_layer-to-state_mgmt" style="stroke:#000000;stroke-width:1.0;"/><polygon fill="#000000" points="1261.46,591.7641,1265.1038,582.614,1261.2638,586.7679,1257.1099,582.928,1261.46,591.7641" style="stroke:#000000;stroke-width:1.0;"/><text fill="#000000" font-family="Tahoma" font-size="16" lengthAdjust="spacing" textLength="137" x="1278" y="471.9219">&#3629;&#3633;&#3611;&#3648;&#3604;&#3605;&#3649;&#3621;&#3632;&#3629;&#3656;&#3634;&#3609; state</text><text fill="#000000" font-family="Tahoma" font-size="16" lengthAdjust="spacing" textLength="172" x="1260.5" y="491.2344">&lt;React Props &amp; Hooks&gt;</text></g><!--link state_mgmt to logic_layer--><g id="link_state_mgmt_logic_layer"><path d="M1243.52,641.0841 C1226.61,662.8941 1201.92,696.6041 1184.5,728.4141 C1153.16,785.6441 1128.7063,852.4651 1116.1963,889.1551 " fill="none" id="state_mgmt-to-logic_layer" style="stroke:#000000;stroke-width:1.0;"/><polygon fill="#000000" points="1114.26,894.8341,1120.9505,887.6065,1115.8736,890.1016,1113.3785,885.0247,1114.26,894.8341" style="stroke:#000000;stroke-width:1.0;"/><text fill="#000000" font-family="Tahoma" font-size="16" lengthAdjust="spacing" textLength="95" x="1185.5" y="745.4219">&#3648;&#3619;&#3637;&#3618;&#3585;&#3651;&#3594;&#3657;&#3615;&#3633;&#3591;&#3585;&#3660;&#3594;&#3633;&#3609;</text><text fill="#000000" font-family="Tahoma" font-size="16" lengthAdjust="spacing" textLength="88" x="1189" y="764.7344">&#3626;&#3619;&#3657;&#3634;&#3591;&#3619;&#3627;&#3633;&#3626;&#3612;&#3656;&#3634;&#3609;</text></g><!--link logic_layer to types--><g id="link_logic_layer_types"><path d="M1124.05,944.0541 C1142.2,968.3941 1171.48,1007.3241 1197.5,1040.4141 C1236.63,1090.1841 1279.9077,1142.7574 1305.9477,1174.1274 " fill="none" id="logic_layer-to-types" style="stroke:#000000;stroke-width:1.0;"/><polygon fill="#000000" points="1309.78,1178.7441,1307.1094,1169.2642,1306.5864,1174.8968,1300.9538,1174.3739,1309.78,1178.7441" style="stroke:#000000;stroke-width:1.0;"/><text fill="#000000" font-family="Tahoma" font-size="16" lengthAdjust="spacing" textLength="130" x="1259.5" y="1087.4219">&#3651;&#3594;&#3657; type definitions</text><text fill="#000000" font-family="Tahoma" font-size="16" lengthAdjust="spacing" textLength="146" x="1251.5" y="1106.7344">&lt;TypeScript Types&gt;</text></g><!--link state_mgmt to local_storage--><g id="link_state_mgmt_local_storage"><path d="M1282.14,641.1141 C1297.36,658.4641 1319.64,681.7941 1342.5,698.4141 C1422.56,756.6241 1466.62,733.6741 1541.5,798.4141 C1569.88,822.9441 1590.4776,853.8264 1605.3476,880.0164 " fill="none" id="state_mgmt-to-local_storage" style="stroke:#000000;stroke-width:1.0;stroke-dasharray:7.0,7.0;"/><polygon fill="#000000" points="1608.31,885.2341,1607.3448,875.4326,1605.8413,880.886,1600.3879,879.3825,1608.31,885.2341" style="stroke:#000000;stroke-width:1.0;"/><text fill="#000000" font-family="Tahoma" font-size="16" lengthAdjust="spacing" textLength="147" x="1496.5" y="745.4219">&#3610;&#3633;&#3609;&#3607;&#3638;&#3585;&#3649;&#3621;&#3632;&#3629;&#3656;&#3634;&#3609; history</text><text fill="#000000" font-family="Tahoma" font-size="16" lengthAdjust="spacing" textLength="114" x="1513" y="764.7344">[Future Feature]</text></g><!--link web_app to clipboard--><g id="link_web_app_clipboard"><path d="M635.91,406.0341 C678.26,450.6941 765.5008,542.6709 807.9008,587.3709 " fill="none" id="web_app-to-clipboard" style="stroke:#000000;stroke-width:1.0;"/><polygon fill="#000000" points="812.03,591.7241,808.7384,582.4415,808.589,588.0964,802.9341,587.9471,812.03,591.7241" style="stroke:#000000;stroke-width:1.0;"/><text fill="#000000" font-family="Tahoma" font-size="16" lengthAdjust="spacing" textLength="104" x="752.5" y="471.9219">&#3588;&#3633;&#3604;&#3621;&#3629;&#3585;&#3619;&#3627;&#3633;&#3626;&#3612;&#3656;&#3634;&#3609;</text><text fill="#000000" font-family="Tahoma" font-size="16" lengthAdjust="spacing" textLength="160" x="724.5" y="491.2344">&lt;navigator.clipboard&gt;</text></g><!--link logic_layer to ui_layer--><g id="link_logic_layer_ui_layer"><path d="M1093.78,894.7741 C1061.95,832.1241 985.79,658.1541 1049.5,534.4141 C1068.01,498.4641 1158.5718,442.0378 1215.1918,409.1478 " fill="none" id="logic_layer-to-ui_layer" style="stroke:#000000;stroke-width:1.0;"/><polygon fill="#000000" points="1220.38,406.1341,1210.5886,407.1959,1216.0565,408.6455,1214.6069,414.1135,1220.38,406.1341" style="stroke:#000000;stroke-width:1.0;"/><text fill="#000000" font-family="Tahoma" font-size="16" lengthAdjust="spacing" textLength="93" x="1069.5" y="613.4219">&#3588;&#3639;&#3609;&#3588;&#3656;&#3634;&#3619;&#3627;&#3633;&#3626;&#3612;&#3656;&#3634;&#3609;</text><text fill="#000000" font-family="Tahoma" font-size="16" lengthAdjust="spacing" textLength="131" x="1050.5" y="632.7344">&#3649;&#3621;&#3632; strength score</text></g><!--link clipboard to user--><g id="link_clipboard_user"><path d="M866.81,591.8141 C895.2,572.5141 938.43,546.5041 980.5,534.4141 C1040.49,517.1641 1498.56,549.7141 1541.5,504.4141 C1614.73,427.1641 1599.19,354.3641 1541.5,264.9141 C1483.45,174.9141 1407.32,238.5641 1313.5,186.9141 C1307.26,183.4841 1305.8063,182.9645 1300.2163,178.2245 " fill="none" id="clipboard-to-user" style="stroke:#000000;stroke-width:1.0;"/><polygon fill="#000000" points="1295.64,174.3441,1299.9175,183.2155,1299.4536,177.5777,1305.0914,177.1138,1295.64,174.3441" style="stroke:#000000;stroke-width:1.0;"/><text fill="#000000" font-family="Tahoma" font-size="16" lengthAdjust="spacing" textLength="73" x="1593" y="378.4219">&#3619;&#3627;&#3633;&#3626;&#3612;&#3656;&#3634;&#3609;&#3606;&#3641;&#3585;</text><text fill="#000000" font-family="Tahoma" font-size="16" lengthAdjust="spacing" textLength="76" x="1591.5" y="397.7344">&#3588;&#3633;&#3604;&#3621;&#3629;&#3585;&#3649;&#3621;&#3657;&#3623;</text></g><!--link web_app to supabase--><g id="link_web_app_supabase"><path d="M515.69,390.1641 C427.3,398.9241 305.41,415.9641 267.5,445.4141 C227.24,476.6841 208.4455,527.7159 198.8355,567.0059 " fill="none" id="web_app-to-supabase" style="stroke:#000000;stroke-width:1.0;stroke-dasharray:7.0,7.0;"/><polygon fill="#000000" points="197.41,572.8341,203.4338,565.0421,198.5979,567.9772,195.6628,563.1414,197.41,572.8341" style="stroke:#000000;stroke-width:1.0;"/><text fill="#000000" font-family="Tahoma" font-size="16" lengthAdjust="spacing" textLength="104" x="313" y="462.4219">&#3610;&#3633;&#3609;&#3607;&#3638;&#3585;/&#3604;&#3638;&#3591;&#3586;&#3657;&#3629;&#3617;&#3641;&#3621;</text><text fill="#000000" font-family="Tahoma" font-size="16" lengthAdjust="spacing" textLength="114" x="308" y="481.7344">[Future Feature]</text><text fill="#000000" font-family="Tahoma" font-size="16" lengthAdjust="spacing" textLength="193" x="268.5" y="501.0469">&lt;@supabase/supabase-js&gt;</text></g><rect fill="none" height="267.4766" id="_legend" rx="7.5" ry="7.5" style="stroke:#000000;stroke-width:1.0;" width="278" x="1662.5" y="1485.4141"/><text fill="#000000" font-family="Tahoma" font-size="14" font-weight="bold" lengthAdjust="spacing" textLength="66" x="1671.5" y="1506.4209">&#3626;&#3633;&#3597;&#3621;&#3633;&#3585;&#3625;&#3603;&#3660;</text><text fill="#000000" font-family="Tahoma" font-size="14" font-weight="bold" lengthAdjust="spacing" textLength="68" x="1745.5" y="1506.4209">&#3588;&#3623;&#3634;&#3617;&#3627;&#3617;&#3634;&#3618;</text><text fill="#000000" font-family="Tahoma" font-size="14" lengthAdjust="spacing" textLength="4" x="1667.5" y="1523.3193">&#160;</text><text fill="#000000" filter="url(#b13hz9ni2fuy9w0)" font-family="Tahoma" font-size="14" lengthAdjust="spacing" textLength="12" x="1671.5" y="1523.3193">&#160;&#160;&#160;</text><text fill="#000000" font-family="Tahoma" font-size="14" lengthAdjust="spacing" textLength="4" x="1683.5" y="1523.3193">&#160;</text><text fill="#000000" font-family="Tahoma" font-size="14" lengthAdjust="spacing" textLength="104" x="1745.5" y="1523.3193">React Application</text><text fill="#000000" font-family="Tahoma" font-size="14" lengthAdjust="spacing" textLength="4" x="1667.5" y="1540.2178">&#160;</text><text fill="#000000" filter="url(#b13hz9ni2fuy9w1)" font-family="Tahoma" font-size="14" lengthAdjust="spacing" textLength="12" x="1671.5" y="1540.2178">&#160;&#160;&#160;</text><text fill="#000000" font-family="Tahoma" font-size="14" lengthAdjust="spacing" textLength="4" x="1683.5" y="1540.2178">&#160;</text><text fill="#000000" font-family="Tahoma" font-size="14" lengthAdjust="spacing" textLength="96" x="1745.5" y="1540.2178">UI Components</text><text fill="#000000" font-family="Tahoma" font-size="14" lengthAdjust="spacing" textLength="4" x="1667.5" y="1557.1162">&#160;</text><text fill="#000000" filter="url(#b13hz9ni2fuy9w2)" font-family="Tahoma" font-size="14" lengthAdjust="spacing" textLength="12" x="1671.5" y="1557.1162">&#160;&#160;&#160;</text><text fill="#000000" font-family="Tahoma" font-size="14" lengthAdjust="spacing" textLength="4" x="1683.5" y="1557.1162">&#160;</text><text fill="#000000" font-family="Tahoma" font-size="14" lengthAdjust="spacing" textLength="87" x="1745.5" y="1557.1162">Business Logic</text><text fill="#000000" font-family="Tahoma" font-size="14" lengthAdjust="spacing" textLength="4" x="1667.5" y="1574.0146">&#160;</text><text fill="#000000" filter="url(#b13hz9ni2fuy9w3)" font-family="Tahoma" font-size="14" lengthAdjust="spacing" textLength="12" x="1671.5" y="1574.0146">&#160;&#160;&#160;</text><text fill="#000000" font-family="Tahoma" font-size="14" lengthAdjust="spacing" textLength="4" x="1683.5" y="1574.0146">&#160;</text><text fill="#000000" font-family="Tahoma" font-size="14" lengthAdjust="spacing" textLength="79" x="1745.5" y="1574.0146">Browser APIs</text><text fill="#000000" font-family="Tahoma" font-size="14" lengthAdjust="spacing" textLength="4" x="1667.5" y="1590.9131">&#160;</text><text fill="#000000" filter="url(#b13hz9ni2fuy9w4)" font-family="Tahoma" font-size="14" lengthAdjust="spacing" textLength="12" x="1671.5" y="1590.9131">&#160;&#160;&#160;</text><text fill="#000000" font-family="Tahoma" font-size="14" lengthAdjust="spacing" textLength="4" x="1683.5" y="1590.9131">&#160;</text><text fill="#000000" font-family="Tahoma" font-size="14" lengthAdjust="spacing" textLength="121" x="1745.5" y="1590.9131">Database (Optional)</text><text fill="#000000" font-family="Tahoma" font-size="14" lengthAdjust="spacing" textLength="20" x="1671.5" y="1607.8115">--&gt;</text><text fill="#000000" font-family="Tahoma" font-size="14" lengthAdjust="spacing" textLength="111" x="1745.5" y="1607.8115">Active Connection</text><text fill="#000000" font-family="Tahoma" font-size="14" lengthAdjust="spacing" textLength="18" x="1671.5" y="1624.71">..&gt;</text><text fill="#000000" font-family="Tahoma" font-size="14" lengthAdjust="spacing" textLength="95" x="1745.5" y="1624.71">Future/Optional</text><line style="stroke:#000000;stroke-width:1.0;" x1="1667.5" x2="1870.5" y1="1492.4141" y2="1492.4141"/><line style="stroke:#000000;stroke-width:1.0;" x1="1667.5" x2="1870.5" y1="1509.3125" y2="1509.3125"/><line style="stroke:#000000;stroke-width:1.0;" x1="1667.5" x2="1870.5" y1="1526.2109" y2="1526.2109"/><line style="stroke:#000000;stroke-width:1.0;" x1="1667.5" x2="1870.5" y1="1543.1094" y2="1543.1094"/><line style="stroke:#000000;stroke-width:1.0;" x1="1667.5" x2="1870.5" y1="1560.0078" y2="1560.0078"/><line style="stroke:#000000;stroke-width:1.0;" x1="1667.5" x2="1870.5" y1="1576.9063" y2="1576.9063"/><line style="stroke:#000000;stroke-width:1.0;" x1="1667.5" x2="1870.5" y1="1593.8047" y2="1593.8047"/><line style="stroke:#000000;stroke-width:1.0;" x1="1667.5" x2="1870.5" y1="1610.7031" y2="1610.7031"/><line style="stroke:#000000;stroke-width:1.0;" x1="1667.5" x2="1870.5" y1="1627.6016" y2="1627.6016"/><line style="stroke:#000000;stroke-width:1.0;" x1="1667.5" x2="1667.5" y1="1492.4141" y2="1627.6016"/><line style="stroke:#000000;stroke-width:1.0;" x1="1741.5" x2="1741.5" y1="1492.4141" y2="1627.6016"/><line style="stroke:#000000;stroke-width:1.0;" x1="1870.5" x2="1870.5" y1="1492.4141" y2="1627.6016"/><text fill="#000000" font-family="Tahoma" font-size="14" lengthAdjust="spacing" textLength="4" x="1667.5" y="1643.6084">&#160;</text><text fill="#000000" font-family="Tahoma" font-size="14" font-weight="bold" lengthAdjust="spacing" textLength="97" x="1667.5" y="1660.5068">&#3588;&#3640;&#3603;&#3626;&#3617;&#3610;&#3633;&#3605;&#3636;&#3627;&#3621;&#3633;&#3585;:</text><text fill="#000000" font-family="Tahoma" font-size="14" lengthAdjust="spacing" textLength="193" x="1667.5" y="1677.4053">- Client-side only (&#3652;&#3617;&#3656;&#3617;&#3637; Backend)</text><text fill="#000000" font-family="Tahoma" font-size="14" lengthAdjust="spacing" textLength="241" x="1667.5" y="1694.3037">- Privacy-first (&#3619;&#3627;&#3633;&#3626;&#3612;&#3656;&#3634;&#3609;&#3652;&#3617;&#3656;&#3629;&#3629;&#3585;&#3592;&#3634;&#3585;&#3648;&#3588;&#3619;&#3639;&#3656;&#3629;&#3591;)</text><text fill="#000000" font-family="Tahoma" font-size="14" lengthAdjust="spacing" textLength="268" x="1667.5" y="1711.2021">- Offline-capable (&#3651;&#3594;&#3657;&#3591;&#3634;&#3609;&#3652;&#3604;&#3657;&#3650;&#3604;&#3618;&#3652;&#3617;&#3656;&#3605;&#3657;&#3629;&#3591;&#3605;&#3656;&#3629;&#3648;&#3609;&#3655;&#3605;)</text><text fill="#000000" font-family="Tahoma" font-size="14" lengthAdjust="spacing" textLength="148" x="1667.5" y="1728.1006">- Zero-trust architecture</text><text fill="#000000" font-family="Tahoma" font-size="14" lengthAdjust="spacing" textLength="230" x="1667.5" y="1744.999">- Responsive design (&#3619;&#3629;&#3591;&#3619;&#3633;&#3610;&#3607;&#3640;&#3585;&#3627;&#3609;&#3657;&#3634;&#3592;&#3629;)</text><!--SRC=[ZLZhRXl75Vw_Jp6bWKPoHLqjMnPKeIOfHWvaXpNb56bi6AFba9nwkRlOYmmc2X0v2kG4oQ-Q2IG7RIGXC193GENMpl9j5dcIddDch-JI42L8ovbpc-zSP__WTKLFCDlWqjIqzzZlFtx5mk6NOV1DEFmw3FuT1kTXS1G6Wt3uRJZy8WoUXy6RC3WDWvTXy0C-3v-5mHcH7TB3HHWSXy5FOV0w37x1lyC3eZpLtCVIjBd3UwmbsjmtlBfbUdSvg2zjywxLuwLYagRyLB25wrfcTuVhZpkEvPkjgcLO3hjIfq-6WkkUt9LUlp96kOm_HPIMqn9EH7MTFWLKJOyxNaIqM5kwSMsbW6WZqJQHf2Pvpp9RO-PjB6wirEVVmV1EAqtB4pcAQgMsl34_IZ6cj5PVhD_80km8tUDcnn3iCut1fp81SDehC0dNKzyjQfzdXTl2SIrpakJvbMkBDohZakTlB5MkrnF9UJjoyblSuplSdMZxmiBrbKgjG4DbUUdcjSjeq0tBRqqIlq6VSV4twOE2FEa1ijLhh0fg8FE4my2z7PHSPWtkka-0ZxqlO8Dxm7hBjWsfSqzQvWFpat2u7mO_KbggDFjN6FmQ1j_JymlAm06bw3ub9FoUqD__K6OU5oXug6aGPg2eH8A7cFjf4JWamKSbnbtcks3hsbg3FBY-hc4uCKTskXwpshGBvouIajIA0NrLvMAV99-H-MUq3byFIG8ilgAZ_8hIaF4rdJYMWnWy3OU7A0UVwQn8HkouyZET-0Kzd5FX-ea4dch2R54UQ9eDlkCTA405eFzDx6I1BqNkJZEZD4Bnm5ox9m17jh0okyJ-nBRxjcZgZhGzjZoxl4xuFH4xZxXjiojRY5d5y0K9pSCO4T4EOqr9sXfePqPRj9klmXSnHXUnvrwHzv-JwuzOnR6UA1yHBvRcap6lG3YzLL3IyskASCIiAPpTY3c54BybCDOT26ZSgrezspA5wRanRYFOtR_DjdXVE0beAOT2ofUF32I8eFfO68Rr9954WErOdcVrAF0YucIVPUIjPbRBR5FmLeumpRYQTA4HzWltFhGHT7Tip-uwK6acxIBdfdGXdF9IcqBt7UmckkM8mfrjQQVYycYF80aT2R2umqtmG0_Eco2wQLcF8p1Tf7dKw_IyIy6PacTiW-GcLJFujD5kWmKvotjMIx0fEphrd9s0CvqZqospBJlC5Pu7WPs7hAEIJxHOB2Q_tos0KhTi2GnaykK0g_Wkb5pNPLjMH-e0LoPHxrWjtn0HQWRkvwBmVKS8Sn9g6VASXV5Paj8ojgjmAjxNkQ7x1XmkZgUcvmYputLpLCBrP0-8gWwauhRivOEgBjskSCeV0m74GjTljuqyGULsO-acG-a6G7mv614rLXDjQKeA_ZoGjw4EE6sknrXwiELU1aKYB4oaAaNEX0oSi8by6wRd52Tr8PI96o0M2Y8Altok04dcZ59KLraJs20D0Oej2nmNVOsZ2LOUkMgfeEgFxsE5_W9R6xQvO-ftgaYVO7l5llODLVfdD8qVK0U0BlbIIsgToXSsjJ3FujtJJDlzEMwiq6G3w1BJ2MVQ6d8MJEhAQlO08yuY2P-GeWlgpeca0sn4mw-PxDa6bQg71Rqa4s5LGzex5eUkVAjn6p2DKOPl2b8z8L21LUrp4-ShDPwLghMxR0xAe8kL1lW_ae1tnPT6As9lcTf8zE4IOvlRTxPcMBNPd64Vy5skGbhBDTlloGNxR0V5nGC7kWVHZrIkie-4emjZXjqLdY7R_SpaaSPEqxVLKorQ0aiR8A3ZYEPVjzPXu5FTXHlebycm9iFMGrNoOx5N6j9yF7hEU1UClNeriO3w_LaQPMCpO3nR3GY3TtWOih-3bVpgLOruliGmmL1wIQBFy3gfeXV3Hmsjp-Wte433TQNgdBO1z_-EMK7JBCG0H5BPbT1zBDFeQr7Mm4b-8olFAJLU4kj9uK18uJmayL4YaD59dep1m5B4rCcYM_9hKZN0WQFCxcEeSXyksAQNpcnbLgNWn1kiRoUz8TFQO0RecphS-nmBUbHBx4gT2cAPRPYwqxUpxP7juYKv4rRliNl285rk5oS8cjVBvVLay5o56H_XUHgDssDdooPsF2z2H6vkRpUQwoKjbZCxkux9ekGzfR80i3wdFYp1UXSQl9lXIor91hkOLSsU0mBnc537TmZiFgJy5DcgNFOcZhcZQ8QOOGGtRFsFk5wWxv3cPBga9LfGPMRyGQMew0BfenSQWynzuJmzF74bqrJ3iMoN_J6UghICJ5IHdHLYZC_YToNx-LSg5z7b9vC33yoHIz2aMblIiffGi-gif3DIGalu1gMuDUCZdY1x17HdhW4fe8upLugtP78HK57iGgMg-vxl25ON7Fy_JCC53KshDSa-8DdFutJSdtHYCDxakxA3BNasaO7sZoAHYooK_nlPVX2BcYG_EHMuN0q4pCN1lAIb9fDyDvRzZZw8NG6zENQyJ8i0sxDvb9JgGipdICfRYedH2M0SSa3hBx6ykVYX_0_ojo4wM2beue22ilTdHWS0RT-HcHVaXL_2u9yGccexMpdLLH972BQ7x6mDYzXgUfLTX_QzDeUBwx2hqYPpOotWKjUGF1_S3DExMm4FJOzvbln4Ny23Wy48IpfBZ2Z1TfcdZHipcuexyNJ4Wb6nnsxXApg1BtDC65xIaw9lzvXoq5pInFSqQhg4RO1OemzEOhyFg9gzIlon2XrKTOrycsDJcTixSB-9R-dJHDvmv2xN- -MsT5mFQ2T5R2hZFCv2jRLF5KpDb4aVFLJ2FuJx0-1TrZc45mngKmLT99rAdbBydavusJ28PAEs8nep1qh9tuLZbJt71_EvetTXTDCHHzgx9ro83nT1RmbNTipeX2CleNyWWFVfv4TnPKLjqzGnLJfe_mS0]--></g></svg>